<svg xmlns="http://www.w3.org/2000/svg" version="1.1" xmlns:xlink="http://www.w3.org/1999/xlink" width="512" height="512" x="0" y="0" viewBox="0 0 64 64" style="enable-background:new 0 0 512 512" xml:space="preserve"><g><path fill="#f2c391" d="M17.669 25.542c-.336-2.856 1.082-7.378 3.937-11.817 4.035-6.27 9.412-10 12.009-8.326 1.869 1.2 1.791 4.872.1 9.171 0 0-9.192 12.767-12.609 13.69s-3.437-2.718-3.437-2.718z" opacity="1" data-original="#f2c391"></path><path fill="#f7dabc" d="M58 45.885c0-7.544-5.1-15.143-12.753-16.564-5.625-1.045-11.9.527-16.79 3.371-1.61.938-4.426 2.743-4.928 4.65a12.869 12.869 0 0 0-.143-7.383l.007.009c2.861.253 7.2-1 11.5-3.557 6.413-3.8 10.335-9.04 8.759-11.7s-8.052-1.726-14.465 2.077c-4.87 2.888-8.3 6.6-8.984 9.386-2.793-1.388-6.2-.223-8.886.955-2.817 1.235-6.032 2.812-7.533 5.894a8.642 8.642 0 0 0 .265 7.716c2.282 4.139 6.714 4.534 10.7 4.144.156-.015.312-.032.466-.049a10.494 10.494 0 0 0 1.771-.362L18 47s3 6 7 7 3 4 3 4h-2a3 3 0 0 0-3 3h26.786a1.534 1.534 0 0 0 0-3H44c7.732 0 14-5.424 14-12.115z" opacity="1" data-original="#f7dabc"></path><g fill="#f2c391"><path d="M57.942 46.992h-.007a11.4 11.4 0 0 1-3.756 7.193v.015a4.122 4.122 0 0 0 2.611.944 4.156 4.156 0 0 0 1.15-8.152zM33 58c-2 0-2 3-2 3h3a2.76 2.76 0 0 1 2.429-3H40a9 9 0 0 1 0-18s-11-2-11 9c0 7 4 9 4 9zM11.712 44.982a21.235 21.235 0 0 0 3.04-.1c.156-.015.312-.032.466-.049a10.494 10.494 0 0 0 1.771-.362L18 47s3 6 7 7c.073.018.134.042.2.062 0 0-3.2-2.062-4.2-4.062-1.612-3.225 2-11 0-8-1.637 2.456-7.289 2.9-9.288 2.982z" fill="#f2c391" opacity="1" data-original="#f2c391"></path></g><path fill="#f59f7f" d="M37.808 16.722A22.625 22.625 0 0 0 23.3 25.037c-.628.8-1.77 2.319.051 2.711 2.636.21 6.63-.837 10.6-2.962a24.945 24.945 0 0 0 6.063-4.414c1.477-1.528 1.715-4.372-2.2-3.65z" opacity="1" data-original="#f59f7f"></path><path d="M23.565 27.4a1 1 0 0 0 .807-.408 23.3 23.3 0 0 1 14.871-9.278 1 1 0 0 0-.328-1.973 25.278 25.278 0 0 0-16.154 10.066 1 1 0 0 0 .8 1.591z" fill="#000000" opacity="1" data-original="#000000"></path><path d="M58.982 46.321c.006-.145.018-.289.018-.436 0-8.567-5.834-16.111-13.57-17.547-5.452-1.011-11.985.293-17.476 3.49A22.546 22.546 0 0 0 25 33.834a13.213 13.213 0 0 0-.28-2.848 24.743 24.743 0 0 0 10.68-3.715c7.111-4.216 11.028-9.833 9.111-13.067-1.3-2.187-4.836-2.549-9.188-1.255 1.2-4.05.8-7.121-1.169-8.39-1.615-1.041-3.953-.616-6.576 1.2a26.723 26.723 0 0 0-6.814 7.422c-2.589 4.024-4.1 8.259-4.133 11.392a18.094 18.094 0 0 0-5.718 1.636c-3.031 1.329-6.4 3.027-8.03 6.372a9.658 9.658 0 0 0 .288 8.637c2.261 4.1 6.449 4.791 9.32 4.791a23.373 23.373 0 0 0 2.353-.134l.484-.052a11.049 11.049 0 0 0 3.341-.909 1 1 0 1 0-.828-1.82 9.163 9.163 0 0 1-2.739.743l-.45.047c-4.911.482-7.98-.636-9.636-3.492l.689-.689a1 1 0 0 0-1.414-1.414l-.079.079a7.455 7.455 0 0 1 .47-4.912c1.332-2.734 4.2-4.175 7.034-5.415a14.334 14.334 0 0 1 5.909-1.5c.015 0 .027-.006.042-.006a.945.945 0 0 0 .118-.007c.019 0 .034-.014.052-.017a.912.912 0 0 0 .3-.1c.023-.012.043-.026.065-.04a.943.943 0 0 0 .214-.184.915.915 0 0 0 .078-.107 1.013 1.013 0 0 0 .1-.2 1.041 1.041 0 0 0 .045-.187 1.1 1.1 0 0 0 .028-.113c0-.027-.011-.051-.012-.077a.889.889 0 0 0 .007-.089c-.319-2.708 1.166-7.088 3.784-11.158a24.732 24.732 0 0 1 6.274-6.85c1.857-1.288 3.485-1.724 4.354-1.166 1.29.83 1.21 3.91-.149 7.563a32.547 32.547 0 0 0-4.248 2.125C23.7 18.877 20 22.806 19.231 25.938a1 1 0 0 0 1.944.475c.634-2.6 4.058-6.118 8.521-8.765 6.154-3.649 11.99-4.291 13.1-2.424s-2.26 6.676-8.413 10.327c-3.97 2.354-8.152 3.668-10.9 3.421a.993.993 0 0 0-.879.384 1 1 0 0 0-.15.95 11.8 11.8 0 0 1 .109 6.782 1 1 0 0 0 1.937.512c.168-.636.97-2.006 4.464-4.04 5.089-2.964 11.106-4.182 16.1-3.252C52.535 31.691 57 39.315 57 45.885 57 52.014 51.168 57 44 57a1 1 0 0 0 0 2h5.785a.69.69 0 0 1 0 1H35.2a1.446 1.446 0 0 1 1.231-1H40a1 1 0 0 0 0-2 8 8 0 0 1 0-16 1 1 0 0 0 0-2 10 10 0 0 0-5.246 18.511A3.983 3.983 0 0 0 33.113 60h-8.844A2 2 0 0 1 26 59h3a.992.992 0 0 0 .1-1.979 3.769 3.769 0 0 0-.459-1.691 5.022 5.022 0 0 0-3.4-2.3c-3.5-.876-6.32-6.422-6.347-6.478a1 1 0 0 0-1.79.9c.131.262 3.256 6.424 7.653 7.523a3.19 3.19 0 0 1 2.123 1.3 1.79 1.79 0 0 1 .22.725H26a4 4 0 0 0-4 4 1 1 0 0 0 1 1h26.786A2.372 2.372 0 0 0 52 59.5a2.607 2.607 0 0 0-.941-2.045 15.182 15.182 0 0 0 3.187-2 5.045 5.045 0 0 0 2.546.691 5.153 5.153 0 0 0 2.19-9.823zm-2.19 7.823a3.039 3.039 0 0 1-1-.172 12.4 12.4 0 0 0 2.906-5.49 3.146 3.146 0 0 1-1.908 5.662z" fill="#000000" opacity="1" data-original="#000000"></path><path d="M11.326 31.631a2.777 2.777 0 0 0-2.066 1.455A2.011 2.011 0 0 0 9 34a1 1 0 0 0 2 .005c0 .078 0 .087.029.013a.8.8 0 0 1 .6-.41.978.978 0 0 1 .842.274 1 1 0 0 0 1.414-1.414 2.988 2.988 0 0 0-2.559-.837z" fill="#000000" opacity="1" data-original="#000000"></path></g></svg>